<mxfile host="app.diagrams.net" modified="2021-03-03T10:52:59.610Z" agent="5.0 (Windows NT 10.0; Win64; x64) AppleWebKit/537.36 (KHTML, like Gecko) Chrome/88.0.4324.182 Safari/537.36 Edg/88.0.705.81" etag="ejFdHAOKIuWrXYra80T5" version="14.4.3" type="github">
  <diagram id="RKgw7NWyR4_IA50PSXi3" name="Page-1">
    <mxGraphModel dx="855" dy="492" grid="1" gridSize="10" guides="1" tooltips="1" connect="1" arrows="1" fold="1" page="1" pageScale="1" pageWidth="827" pageHeight="1169" math="0" shadow="0">
      <root>
        <mxCell id="0" />
        <mxCell id="1" parent="0" />
        <mxCell id="StR8HcicT1tKyI4yCcUy-22" value="" style="edgeStyle=orthogonalEdgeStyle;rounded=0;orthogonalLoop=1;jettySize=auto;html=1;" edge="1" parent="1" source="StR8HcicT1tKyI4yCcUy-2" target="StR8HcicT1tKyI4yCcUy-11">
          <mxGeometry relative="1" as="geometry" />
        </mxCell>
        <mxCell id="StR8HcicT1tKyI4yCcUy-26" style="edgeStyle=orthogonalEdgeStyle;rounded=0;orthogonalLoop=1;jettySize=auto;html=1;entryX=0.25;entryY=0.67;entryDx=0;entryDy=0;entryPerimeter=0;startArrow=classic;startFill=1;" edge="1" parent="1" source="StR8HcicT1tKyI4yCcUy-2" target="StR8HcicT1tKyI4yCcUy-9">
          <mxGeometry relative="1" as="geometry">
            <Array as="points">
              <mxPoint x="519" y="160" />
              <mxPoint x="519" y="120" />
            </Array>
          </mxGeometry>
        </mxCell>
        <mxCell id="StR8HcicT1tKyI4yCcUy-27" style="edgeStyle=orthogonalEdgeStyle;rounded=0;orthogonalLoop=1;jettySize=auto;html=1;entryX=0;entryY=0.75;entryDx=0;entryDy=0;" edge="1" parent="1" source="StR8HcicT1tKyI4yCcUy-2" target="StR8HcicT1tKyI4yCcUy-23">
          <mxGeometry relative="1" as="geometry">
            <Array as="points">
              <mxPoint x="374" y="110" />
              <mxPoint x="482" y="110" />
            </Array>
          </mxGeometry>
        </mxCell>
        <mxCell id="StR8HcicT1tKyI4yCcUy-30" style="edgeStyle=orthogonalEdgeStyle;rounded=0;orthogonalLoop=1;jettySize=auto;html=1;" edge="1" parent="1" source="StR8HcicT1tKyI4yCcUy-2" target="StR8HcicT1tKyI4yCcUy-12">
          <mxGeometry relative="1" as="geometry">
            <Array as="points">
              <mxPoint x="420" y="300" />
              <mxPoint x="633" y="300" />
            </Array>
          </mxGeometry>
        </mxCell>
        <mxCell id="StR8HcicT1tKyI4yCcUy-41" value="Internet Upload (OAuth2)" style="edgeLabel;html=1;align=center;verticalAlign=middle;resizable=0;points=[];" vertex="1" connectable="0" parent="StR8HcicT1tKyI4yCcUy-30">
          <mxGeometry x="-0.1673" relative="1" as="geometry">
            <mxPoint as="offset" />
          </mxGeometry>
        </mxCell>
        <mxCell id="StR8HcicT1tKyI4yCcUy-2" value="New Labspace &lt;br&gt;Platform&lt;br&gt;(Blackbox)" style="shape=image;html=1;verticalAlign=top;verticalLabelPosition=bottom;labelBackgroundColor=#ffffff;imageAspect=0;aspect=fixed;image=https://cdn0.iconfinder.com/data/icons/black-box/64/box-asterisk-128.png" vertex="1" parent="1">
          <mxGeometry x="311" y="121" width="128" height="128" as="geometry" />
        </mxCell>
        <mxCell id="StR8HcicT1tKyI4yCcUy-17" value="" style="edgeStyle=orthogonalEdgeStyle;rounded=0;orthogonalLoop=1;jettySize=auto;html=1;" edge="1" parent="1" source="StR8HcicT1tKyI4yCcUy-3" target="StR8HcicT1tKyI4yCcUy-2">
          <mxGeometry relative="1" as="geometry" />
        </mxCell>
        <mxCell id="StR8HcicT1tKyI4yCcUy-3" value="Infra Admin" style="shape=image;html=1;verticalAlign=top;verticalLabelPosition=bottom;labelBackgroundColor=#ffffff;imageAspect=0;aspect=fixed;image=https://cdn0.iconfinder.com/data/icons/business-startup-10/50/76-128.png" vertex="1" parent="1">
          <mxGeometry x="150" y="140" width="48" height="48" as="geometry" />
        </mxCell>
        <mxCell id="StR8HcicT1tKyI4yCcUy-19" style="edgeStyle=orthogonalEdgeStyle;rounded=0;orthogonalLoop=1;jettySize=auto;html=1;" edge="1" parent="1" source="StR8HcicT1tKyI4yCcUy-7" target="StR8HcicT1tKyI4yCcUy-2">
          <mxGeometry relative="1" as="geometry">
            <Array as="points">
              <mxPoint x="250" y="288" />
              <mxPoint x="250" y="200" />
            </Array>
          </mxGeometry>
        </mxCell>
        <mxCell id="StR8HcicT1tKyI4yCcUy-31" value="k8s cluster &lt;br&gt;access via&amp;nbsp;&lt;br&gt;Google&amp;nbsp;&lt;br&gt;Console" style="edgeLabel;html=1;align=center;verticalAlign=middle;resizable=0;points=[];" vertex="1" connectable="0" parent="StR8HcicT1tKyI4yCcUy-19">
          <mxGeometry x="0.0698" y="2" relative="1" as="geometry">
            <mxPoint x="-12" y="11.2" as="offset" />
          </mxGeometry>
        </mxCell>
        <mxCell id="StR8HcicT1tKyI4yCcUy-7" value="Browser" style="pointerEvents=1;shadow=0;dashed=0;html=1;strokeColor=none;fillColor=#434445;aspect=fixed;labelPosition=center;verticalLabelPosition=bottom;verticalAlign=top;align=center;outlineConnect=0;shape=mxgraph.vvd.web_browser;" vertex="1" parent="1">
          <mxGeometry x="150" y="270" width="50" height="35.5" as="geometry" />
        </mxCell>
        <mxCell id="StR8HcicT1tKyI4yCcUy-18" value="" style="edgeStyle=orthogonalEdgeStyle;rounded=0;orthogonalLoop=1;jettySize=auto;html=1;" edge="1" parent="1" source="StR8HcicT1tKyI4yCcUy-8" target="StR8HcicT1tKyI4yCcUy-7">
          <mxGeometry relative="1" as="geometry" />
        </mxCell>
        <mxCell id="StR8HcicT1tKyI4yCcUy-8" value="MLOps Team" style="aspect=fixed;perimeter=ellipsePerimeter;html=1;align=center;shadow=0;dashed=0;spacingTop=3;image;image=img/lib/active_directory/user_accounts.svg;" vertex="1" parent="1">
          <mxGeometry x="50" y="270" width="40" height="38.8" as="geometry" />
        </mxCell>
        <mxCell id="StR8HcicT1tKyI4yCcUy-9" value="JLR VPC" style="html=1;fillColor=#5184F3;strokeColor=none;verticalAlign=top;labelPosition=center;verticalLabelPosition=bottom;align=center;spacingTop=-6;fontSize=11;fontStyle=1;fontColor=#999999;shape=mxgraph.gcp2.hexIcon;prIcon=virtual_private_cloud" vertex="1" parent="1">
          <mxGeometry x="600" y="80" width="66" height="60" as="geometry" />
        </mxCell>
        <mxCell id="StR8HcicT1tKyI4yCcUy-11" value="ISILON" style="points=[];aspect=fixed;html=1;align=center;shadow=0;dashed=0;image;image=img/lib/allied_telesis/storage/Datacenter_Server_Rack_Storage_Unit_Small.svg;" vertex="1" parent="1">
          <mxGeometry x="335" y="340" width="77.4" height="67.2" as="geometry" />
        </mxCell>
        <mxCell id="StR8HcicT1tKyI4yCcUy-24" value="" style="edgeStyle=orthogonalEdgeStyle;rounded=0;orthogonalLoop=1;jettySize=auto;html=1;" edge="1" parent="1" source="StR8HcicT1tKyI4yCcUy-44">
          <mxGeometry relative="1" as="geometry">
            <mxPoint x="655" y="240" as="targetPoint" />
          </mxGeometry>
        </mxCell>
        <mxCell id="StR8HcicT1tKyI4yCcUy-12" value="3rd Party Labeller" style="aspect=fixed;perimeter=ellipsePerimeter;html=1;align=center;shadow=0;dashed=0;fontColor=#4277BB;labelBackgroundColor=#ffffff;fontSize=12;spacingTop=3;image;image=img/lib/ibm/applications/saas_applications.svg;" vertex="1" parent="1">
          <mxGeometry x="603" y="320" width="60" height="60" as="geometry" />
        </mxCell>
        <mxCell id="StR8HcicT1tKyI4yCcUy-25" style="edgeStyle=orthogonalEdgeStyle;rounded=0;orthogonalLoop=1;jettySize=auto;html=1;" edge="1" parent="1" target="StR8HcicT1tKyI4yCcUy-2">
          <mxGeometry relative="1" as="geometry">
            <mxPoint x="596" y="210" as="sourcePoint" />
          </mxGeometry>
        </mxCell>
        <mxCell id="StR8HcicT1tKyI4yCcUy-46" value="File pulled in &lt;br&gt;(Internet download)" style="edgeLabel;html=1;align=center;verticalAlign=middle;resizable=0;points=[];" vertex="1" connectable="0" parent="StR8HcicT1tKyI4yCcUy-25">
          <mxGeometry x="-0.1014" relative="1" as="geometry">
            <mxPoint as="offset" />
          </mxGeometry>
        </mxCell>
        <mxCell id="StR8HcicT1tKyI4yCcUy-21" style="edgeStyle=orthogonalEdgeStyle;rounded=0;orthogonalLoop=1;jettySize=auto;html=1;" edge="1" parent="1" source="StR8HcicT1tKyI4yCcUy-14" target="StR8HcicT1tKyI4yCcUy-2">
          <mxGeometry relative="1" as="geometry">
            <Array as="points">
              <mxPoint x="270" y="414" />
              <mxPoint x="270" y="220" />
            </Array>
          </mxGeometry>
        </mxCell>
        <mxCell id="StR8HcicT1tKyI4yCcUy-61" value="k8s &lt;br&gt;Control Plane" style="edgeLabel;html=1;align=center;verticalAlign=middle;resizable=0;points=[];" vertex="1" connectable="0" parent="StR8HcicT1tKyI4yCcUy-21">
          <mxGeometry x="-0.2817" y="-1" relative="1" as="geometry">
            <mxPoint as="offset" />
          </mxGeometry>
        </mxCell>
        <mxCell id="StR8HcicT1tKyI4yCcUy-14" value="Gitlab Runner" style="shape=image;html=1;verticalAlign=top;verticalLabelPosition=bottom;labelBackgroundColor=#ffffff;imageAspect=0;aspect=fixed;image=https://cdn4.iconfinder.com/data/icons/logos-and-brands/512/144_Gitlab_logo_logos-128.png" vertex="1" parent="1">
          <mxGeometry x="140" y="380" width="68" height="68" as="geometry" />
        </mxCell>
        <mxCell id="StR8HcicT1tKyI4yCcUy-20" value="" style="edgeStyle=orthogonalEdgeStyle;rounded=0;orthogonalLoop=1;jettySize=auto;html=1;" edge="1" parent="1" source="StR8HcicT1tKyI4yCcUy-15" target="StR8HcicT1tKyI4yCcUy-14">
          <mxGeometry relative="1" as="geometry" />
        </mxCell>
        <mxCell id="StR8HcicT1tKyI4yCcUy-15" value="MLOps Team" style="aspect=fixed;perimeter=ellipsePerimeter;html=1;align=center;shadow=0;dashed=0;spacingTop=3;image;image=img/lib/active_directory/user_accounts.svg;" vertex="1" parent="1">
          <mxGeometry x="50" y="390" width="40" height="38.8" as="geometry" />
        </mxCell>
        <mxCell id="StR8HcicT1tKyI4yCcUy-23" value="Internet Resource" style="aspect=fixed;perimeter=ellipsePerimeter;html=1;align=center;shadow=0;dashed=0;spacingTop=3;image;image=img/lib/active_directory/internet_cloud.svg;" vertex="1" parent="1">
          <mxGeometry x="480" y="36" width="50" height="31.5" as="geometry" />
        </mxCell>
        <mxCell id="StR8HcicT1tKyI4yCcUy-28" value="" style="strokeColor=#dddddd;shadow=1;strokeWidth=1;rounded=1;absoluteArcSize=1;arcSize=2;" vertex="1" parent="1">
          <mxGeometry x="490" y="147" width="70" height="20" as="geometry" />
        </mxCell>
        <mxCell id="StR8HcicT1tKyI4yCcUy-29" value="ELAN" style="dashed=0;connectable=0;html=1;fillColor=#757575;strokeColor=none;shape=mxgraph.gcp2.gateway;part=1;labelPosition=right;verticalLabelPosition=middle;align=left;verticalAlign=middle;spacingLeft=5;fontSize=12;" vertex="1" parent="StR8HcicT1tKyI4yCcUy-28">
          <mxGeometry y="0.5" width="30" height="32" relative="1" as="geometry">
            <mxPoint x="5" y="-16" as="offset" />
          </mxGeometry>
        </mxCell>
        <mxCell id="StR8HcicT1tKyI4yCcUy-32" value="Cloud&#xa;Composer" style="html=1;fillColor=#5184F3;strokeColor=none;verticalAlign=top;labelPosition=center;verticalLabelPosition=bottom;align=center;spacingTop=-6;fontSize=11;fontStyle=1;fontColor=#999999;shape=mxgraph.gcp2.hexIcon;prIcon=cloud_composer" vertex="1" parent="1">
          <mxGeometry x="680" y="33.5" width="47" height="38" as="geometry" />
        </mxCell>
        <mxCell id="StR8HcicT1tKyI4yCcUy-33" value="Container&#xa;Registry" style="html=1;fillColor=#5184F3;strokeColor=none;verticalAlign=top;labelPosition=center;verticalLabelPosition=bottom;align=center;spacingTop=-6;fontSize=11;fontStyle=1;fontColor=#999999;shape=mxgraph.gcp2.hexIcon;prIcon=container_registry" vertex="1" parent="1">
          <mxGeometry x="710" y="122" width="40" height="38" as="geometry" />
        </mxCell>
        <mxCell id="StR8HcicT1tKyI4yCcUy-34" value="" style="endArrow=none;html=1;rounded=0;align=center;verticalAlign=top;endFill=0;labelBackgroundColor=none;endSize=6;startArrow=oval;startFill=1;exitX=0.75;exitY=0.67;exitDx=0;exitDy=0;exitPerimeter=0;" edge="1" parent="1" source="StR8HcicT1tKyI4yCcUy-9">
          <mxGeometry relative="1" as="geometry">
            <mxPoint x="700" y="190" as="sourcePoint" />
            <mxPoint x="710" y="140" as="targetPoint" />
          </mxGeometry>
        </mxCell>
        <mxCell id="StR8HcicT1tKyI4yCcUy-35" value="" style="endArrow=none;html=1;rounded=0;align=center;verticalAlign=top;endFill=0;labelBackgroundColor=none;endSize=6;startArrow=oval;startFill=1;entryX=0.199;entryY=0.899;entryDx=0;entryDy=0;entryPerimeter=0;" edge="1" parent="1" target="StR8HcicT1tKyI4yCcUy-32">
          <mxGeometry relative="1" as="geometry">
            <mxPoint x="650" y="100" as="sourcePoint" />
            <mxPoint x="800" y="60" as="targetPoint" />
          </mxGeometry>
        </mxCell>
        <mxCell id="StR8HcicT1tKyI4yCcUy-37" value="" style="strokeColor=#dddddd;shadow=1;strokeWidth=1;rounded=1;absoluteArcSize=1;arcSize=2;" vertex="1" parent="1">
          <mxGeometry x="590" y="12" width="70" height="38" as="geometry" />
        </mxCell>
        <mxCell id="StR8HcicT1tKyI4yCcUy-38" value="Cloud&#xa;Storage" style="dashed=0;connectable=0;html=1;fillColor=#5184F3;strokeColor=none;shape=mxgraph.gcp2.hexIcon;prIcon=cloud_storage;part=1;labelPosition=right;verticalLabelPosition=middle;align=left;verticalAlign=middle;spacingLeft=5;fontColor=#999999;fontSize=12;" vertex="1" parent="StR8HcicT1tKyI4yCcUy-37">
          <mxGeometry y="0.5" width="44" height="39" relative="1" as="geometry">
            <mxPoint x="5" y="-19.5" as="offset" />
          </mxGeometry>
        </mxCell>
        <mxCell id="StR8HcicT1tKyI4yCcUy-39" value="" style="endArrow=none;html=1;rounded=0;align=center;verticalAlign=top;endFill=0;labelBackgroundColor=none;endSize=6;startArrow=oval;startFill=1;entryX=0.5;entryY=1;entryDx=0;entryDy=0;exitX=0.5;exitY=0.16;exitDx=0;exitDy=0;exitPerimeter=0;" edge="1" parent="1" source="StR8HcicT1tKyI4yCcUy-9" target="StR8HcicT1tKyI4yCcUy-37">
          <mxGeometry relative="1" as="geometry">
            <mxPoint x="653.56" y="100.20000000000005" as="sourcePoint" />
            <mxPoint x="699.3530000000001" y="77.66200000000003" as="targetPoint" />
            <Array as="points" />
          </mxGeometry>
        </mxCell>
        <mxCell id="StR8HcicT1tKyI4yCcUy-40" value="Cloud&#xa;Pub/Sub" style="html=1;fillColor=#5184F3;strokeColor=none;verticalAlign=top;labelPosition=center;verticalLabelPosition=bottom;align=center;spacingTop=-6;fontSize=11;fontStyle=1;fontColor=#999999;shape=mxgraph.gcp2.hexIcon;prIcon=cloud_pubsub" vertex="1" parent="1">
          <mxGeometry x="748" y="72" width="40" height="40" as="geometry" />
        </mxCell>
        <mxCell id="StR8HcicT1tKyI4yCcUy-42" value="" style="strokeColor=#dddddd;shadow=1;strokeWidth=1;rounded=1;absoluteArcSize=1;arcSize=2;" vertex="1" parent="1">
          <mxGeometry x="600" y="200" width="70" height="38" as="geometry" />
        </mxCell>
        <mxCell id="StR8HcicT1tKyI4yCcUy-43" value="Cloud&#xa;Storage" style="dashed=0;connectable=0;html=1;fillColor=#5184F3;strokeColor=none;shape=mxgraph.gcp2.hexIcon;prIcon=cloud_storage;part=1;labelPosition=right;verticalLabelPosition=middle;align=left;verticalAlign=middle;spacingLeft=5;fontColor=#999999;fontSize=12;" vertex="1" parent="StR8HcicT1tKyI4yCcUy-42">
          <mxGeometry y="0.5" width="44" height="39" relative="1" as="geometry">
            <mxPoint x="5" y="-19.5" as="offset" />
          </mxGeometry>
        </mxCell>
        <mxCell id="StR8HcicT1tKyI4yCcUy-44" value="File drops" style="text;html=1;strokeColor=none;fillColor=none;align=center;verticalAlign=middle;whiteSpace=wrap;rounded=0;" vertex="1" parent="1">
          <mxGeometry x="610" y="260" width="90" height="20" as="geometry" />
        </mxCell>
        <mxCell id="StR8HcicT1tKyI4yCcUy-45" value="" style="edgeStyle=orthogonalEdgeStyle;rounded=0;orthogonalLoop=1;jettySize=auto;html=1;" edge="1" parent="1" source="StR8HcicT1tKyI4yCcUy-12" target="StR8HcicT1tKyI4yCcUy-44">
          <mxGeometry relative="1" as="geometry">
            <mxPoint x="633" y="320" as="sourcePoint" />
            <mxPoint x="629.5" y="240" as="targetPoint" />
          </mxGeometry>
        </mxCell>
        <mxCell id="StR8HcicT1tKyI4yCcUy-48" value="" style="points=[[0,0,0],[0.25,0,0],[0.5,0,0],[0.75,0,0],[1,0,0],[0,1,0],[0.25,1,0],[0.5,1,0],[0.75,1,0],[1,1,0],[0,0.25,0],[0,0.5,0],[0,0.75,0],[1,0.25,0],[1,0.5,0],[1,0.75,0]];outlineConnect=0;fontColor=#232F3E;gradientColor=#F54749;gradientDirection=north;fillColor=#C7131F;strokeColor=#ffffff;dashed=0;verticalLabelPosition=bottom;verticalAlign=top;align=center;html=1;fontSize=12;fontStyle=0;aspect=fixed;shape=mxgraph.aws4.resourceIcon;resIcon=mxgraph.aws4.waf;" vertex="1" parent="1">
          <mxGeometry x="358.7" y="118" width="30" height="30" as="geometry" />
        </mxCell>
        <mxCell id="StR8HcicT1tKyI4yCcUy-52" value="" style="points=[[0,0,0],[0.25,0,0],[0.5,0,0],[0.75,0,0],[1,0,0],[0,1,0],[0.25,1,0],[0.5,1,0],[0.75,1,0],[1,1,0],[0,0.25,0],[0,0.5,0],[0,0.75,0],[1,0.25,0],[1,0.5,0],[1,0.75,0]];outlineConnect=0;fontColor=#232F3E;gradientColor=#F54749;gradientDirection=north;fillColor=#C7131F;strokeColor=#ffffff;dashed=0;verticalLabelPosition=bottom;verticalAlign=top;align=center;html=1;fontSize=12;fontStyle=0;aspect=fixed;shape=mxgraph.aws4.resourceIcon;resIcon=mxgraph.aws4.waf;" vertex="1" parent="1">
          <mxGeometry x="408" y="170" width="30" height="30" as="geometry" />
        </mxCell>
        <mxCell id="StR8HcicT1tKyI4yCcUy-53" value="" style="points=[[0,0,0],[0.25,0,0],[0.5,0,0],[0.75,0,0],[1,0,0],[0,1,0],[0.25,1,0],[0.5,1,0],[0.75,1,0],[1,1,0],[0,0.25,0],[0,0.5,0],[0,0.75,0],[1,0.25,0],[1,0.5,0],[1,0.75,0]];outlineConnect=0;fontColor=#232F3E;gradientColor=#F54749;gradientDirection=north;fillColor=#C7131F;strokeColor=#ffffff;dashed=0;verticalLabelPosition=bottom;verticalAlign=top;align=center;html=1;fontSize=12;fontStyle=0;aspect=fixed;shape=mxgraph.aws4.resourceIcon;resIcon=mxgraph.aws4.waf;" vertex="1" parent="1">
          <mxGeometry x="310" y="200" width="28" height="28" as="geometry" />
        </mxCell>
        <mxCell id="StR8HcicT1tKyI4yCcUy-54" value="" style="points=[[0,0,0],[0.25,0,0],[0.5,0,0],[0.75,0,0],[1,0,0],[0,1,0],[0.25,1,0],[0.5,1,0],[0.75,1,0],[1,1,0],[0,0.25,0],[0,0.5,0],[0,0.75,0],[1,0.25,0],[1,0.5,0],[1,0.75,0]];outlineConnect=0;fontColor=#232F3E;gradientColor=#F54749;gradientDirection=north;fillColor=#C7131F;strokeColor=#ffffff;dashed=0;verticalLabelPosition=bottom;verticalAlign=top;align=center;html=1;fontSize=12;fontStyle=0;aspect=fixed;shape=mxgraph.aws4.resourceIcon;resIcon=mxgraph.aws4.waf;" vertex="1" parent="1">
          <mxGeometry x="409" y="228" width="30" height="30" as="geometry" />
        </mxCell>
        <mxCell id="StR8HcicT1tKyI4yCcUy-55" value="" style="points=[[0,0,0],[0.25,0,0],[0.5,0,0],[0.75,0,0],[1,0,0],[0,1,0],[0.25,1,0],[0.5,1,0],[0.75,1,0],[1,1,0],[0,0.25,0],[0,0.5,0],[0,0.75,0],[1,0.25,0],[1,0.5,0],[1,0.75,0]];outlineConnect=0;fontColor=#232F3E;gradientColor=#F54749;gradientDirection=north;fillColor=#C7131F;strokeColor=#ffffff;dashed=0;verticalLabelPosition=bottom;verticalAlign=top;align=center;html=1;fontSize=12;fontStyle=0;aspect=fixed;shape=mxgraph.aws4.resourceIcon;resIcon=mxgraph.aws4.waf;" vertex="1" parent="1">
          <mxGeometry x="310" y="171" width="28" height="28" as="geometry" />
        </mxCell>
        <mxCell id="StR8HcicT1tKyI4yCcUy-59" value="NVidia DGX A100 Box&lt;br&gt;" style="html=1;fillColor=#5184F3;strokeColor=none;verticalAlign=top;labelPosition=center;verticalLabelPosition=bottom;align=center;spacingTop=-6;fontSize=11;fontStyle=1;fontColor=#999999;shape=mxgraph.gcp2.hexIcon;prIcon=gpu" vertex="1" parent="1">
          <mxGeometry x="310" y="40" width="50" height="40" as="geometry" />
        </mxCell>
        <mxCell id="StR8HcicT1tKyI4yCcUy-60" value="" style="aspect=fixed;perimeter=ellipsePerimeter;html=1;align=center;shadow=0;dashed=0;fontColor=#4277BB;labelBackgroundColor=#ffffff;fontSize=12;spacingTop=3;image;image=img/lib/ibm/vpc/Bridge.svg;" vertex="1" parent="1">
          <mxGeometry x="335" y="95" width="30" height="30" as="geometry" />
        </mxCell>
        <mxCell id="StR8HcicT1tKyI4yCcUy-62" value="" style="strokeColor=#dddddd;shadow=1;strokeWidth=1;rounded=1;absoluteArcSize=1;arcSize=2;" vertex="1" parent="1">
          <mxGeometry x="240" y="308.8" width="70" height="20" as="geometry" />
        </mxCell>
        <mxCell id="StR8HcicT1tKyI4yCcUy-63" value="ELAN" style="dashed=0;connectable=0;html=1;fillColor=#757575;strokeColor=none;shape=mxgraph.gcp2.gateway;part=1;labelPosition=right;verticalLabelPosition=middle;align=left;verticalAlign=middle;spacingLeft=5;fontSize=12;" vertex="1" parent="StR8HcicT1tKyI4yCcUy-62">
          <mxGeometry y="0.5" width="30" height="32" relative="1" as="geometry">
            <mxPoint x="5" y="-16" as="offset" />
          </mxGeometry>
        </mxCell>
        <mxCell id="StR8HcicT1tKyI4yCcUy-65" value="JLR VPC" style="html=1;fillColor=#5184F3;strokeColor=none;verticalAlign=top;labelPosition=center;verticalLabelPosition=bottom;align=center;spacingTop=-6;fontSize=11;fontStyle=1;fontColor=#999999;shape=mxgraph.gcp2.hexIcon;prIcon=virtual_private_cloud" vertex="1" parent="1">
          <mxGeometry x="141" y="349.6" width="66" height="60" as="geometry" />
        </mxCell>
        <mxCell id="StR8HcicT1tKyI4yCcUy-69" value="" style="endArrow=none;html=1;rounded=0;align=center;verticalAlign=top;endFill=0;labelBackgroundColor=none;endSize=6;startArrow=oval;startFill=1;entryX=0.175;entryY=0.5;entryDx=0;entryDy=0;entryPerimeter=0;" edge="1" parent="1">
          <mxGeometry relative="1" as="geometry">
            <mxPoint x="658" y="110" as="sourcePoint" />
            <mxPoint x="755" y="95" as="targetPoint" />
          </mxGeometry>
        </mxCell>
      </root>
    </mxGraphModel>
  </diagram>
</mxfile>
